<?xml version="1.0" encoding="UTF-8"?>
<svg width="60px" height="60px" viewBox="0 0 60 60" version="1.1" xmlns="http://www.w3.org/2000/svg" xmlns:xlink="http://www.w3.org/1999/xlink">
    <!-- Generator: Sketch 49.3 (51167) - http://www.bohemiancoding.com/sketch -->
    <title>Group 4</title>
    <desc>Created with Sketch.</desc>
    <defs>
        <linearGradient x1="50%" y1="-2.22044605e-14%" x2="50%" y2="98.4853316%" id="linearGradient-1">
            <stop stop-color="#2EA1F8" offset="0%"></stop>
            <stop stop-color="#1990EA" offset="100%"></stop>
        </linearGradient>
    </defs>
    <g id="YB-screens" stroke="none" stroke-width="1" fill="none" fill-rule="evenodd">
        <g id="YB.Partners-main" transform="translate(-271.000000, -148.000000)">
            <g id="Stats" transform="translate(241.000000, 118.000000)">
                <g id="Stats-Widget-1">
                    <g id="Group-4" transform="translate(30.000000, 30.000000)">
                        <rect id="Base" fill="url(#linearGradient-1)" x="0" y="0" width="60" height="60" rx="30"></rect>
                        <rect id="Base" stroke="#FFFFFF" stroke-width="2" opacity="0.5" x="5" y="5" width="50" height="50" rx="25"></rect>
                        <path d="M41.221,37.718 L35.523,41.747 C35.384,41.845 35.223,41.906 35.054,41.922 C34.992,41.928 34.233,42 33.25,42 C32.225,42 30.955,41.922 29.977,41.609 C29.003,41.297 27.831,40.617 26.797,40.018 C26.141,39.637 25.243,39.116 24.97,39.063 C24.633,39.067 22.745,39.532 21.224,39.964 C20.962,40.038 20.681,39.999 20.45,39.856 C20.217,39.713 20.052,39.479 19.997,39.209 L19.012,34.518 C18.903,34.002 19.207,33.49 19.707,33.347 C26.072,31.521 29.377,32.016 29.516,32.038 C29.58,32.048 29.644,32.065 29.705,32.088 L35.334,34.205 C35.343,34.208 35.348,34.216 35.357,34.219 C35.365,34.223 35.373,34.221 35.381,34.225 C35.764,34.392 36.074,34.655 36.315,34.966 L39.152,33.261 C39.175,33.247 39.201,33.247 39.224,33.235 C39.247,33.224 39.262,33.204 39.286,33.194 C40.525,32.686 41.944,33.297 42.449,34.555 C42.934,35.78 42.383,37.169 41.221,37.718 Z M40.056,35.043 L36.798,37 C36.766,37.157 36.719,37.312 36.654,37.464 C36.398,38.071 35.925,38.539 35.322,38.782 C35.03,38.901 34.726,38.959 34.421,38.959 C34.095,38.959 33.77,38.892 33.462,38.757 L28.503,36.941 C27.991,36.753 27.727,36.18 27.912,35.661 C28.095,35.142 28.66,34.872 29.172,35.06 L34.186,36.898 C34.394,36.987 34.525,36.951 34.593,36.925 C34.658,36.898 34.779,36.83 34.845,36.675 C34.944,36.44 34.836,36.168 34.605,36.064 L29.128,34.004 C28.638,33.953 25.93,33.759 21.132,35.026 L21.706,37.759 C22.835,37.458 24.416,37.067 25.03,37.067 C25.652,37.067 26.398,37.483 27.773,38.281 C28.721,38.831 29.796,39.454 30.57,39.701 C31.721,40.07 33.69,40.02 34.615,39.952 L40.174,36.021 C40.235,35.978 40.299,35.942 40.368,35.914 C40.603,35.818 40.718,35.544 40.623,35.305 C40.533,35.079 40.285,34.969 40.056,35.043 Z M35.977,33 C33.475,33 31.442,30.989 31.322,28.477 C28.849,28.356 26.868,26.291 26.868,23.75 C26.868,21.131 28.967,19 31.546,19 C34.048,19 36.081,21.011 36.201,23.523 C38.675,23.644 40.655,25.709 40.655,28.25 C40.655,30.87 38.557,33 35.977,33 Z M31.546,21 C30.052,21 28.838,22.234 28.838,23.75 C28.838,25.267 30.052,26.5 31.546,26.5 C31.578,26.5 31.609,26.49 31.641,26.489 C32.117,25.287 33.059,24.33 34.243,23.847 C34.244,23.815 34.254,23.783 34.254,23.75 C34.254,22.234 33.039,21 31.546,21 Z M35.977,25.5 C34.484,25.5 33.269,26.734 33.269,28.25 C33.269,29.767 34.484,31 35.977,31 C37.471,31 38.686,29.767 38.686,28.25 C38.686,26.734 37.471,25.5 35.977,25.5 Z" id="Shape" fill="#FFFFFF"></path>
                    </g>
                </g>
            </g>
        </g>
    </g>
</svg>