<?xml version="1.0" standalone="no"?>
<!DOCTYPE svg PUBLIC "-//W3C//DTD SVG 20010904//EN"
 "http://www.w3.org/TR/2001/REC-SVG-20010904/DTD/svg10.dtd">
<svg version="1.0" xmlns="http://www.w3.org/2000/svg"
 width="512.000000pt" height="512.000000pt" viewBox="0 0 512.000000 512.000000"
 preserveAspectRatio="xMidYMid meet">
<metadata>
Created by potrace 1.11, written by Peter Selinger 2001-2013
</metadata>
<g transform="translate(0.000000,512.000000) scale(0.100000,-0.100000)"
fill="#000000" stroke="none">
<path d="M2290 5105 c-158 -22 -197 -28 -255 -42 -35 -8 -31 -7 -75 -17 -154
-34 -362 -110 -546 -202 -566 -279 -1008 -759 -1237 -1344 -132 -338 -178
-604 -171 -990 2 -129 6 -248 8 -265 3 -16 8 -50 11 -75 10 -73 45 -228 76
-340 164 -576 555 -1092 1075 -1417 317 -199 726 -345 1090 -389 27 -3 60 -8
74 -11 14 -2 147 -6 295 -8 248 -3 368 4 510 29 17 3 46 8 65 11 253 42 565
156 796 290 524 304 898 814 1038 1415 13 59 18 79 30 146 5 24 11 65 21 134
3 25 8 59 11 75 3 17 7 189 11 383 l6 352 -29 0 c-38 1 -2447 1 -2455 0 -7 0
-5 -963 3 -975 4 -7 230 -10 657 -10 547 0 651 -2 651 -14 0 -21 -76 -167
-122 -235 -57 -84 -160 -193 -220 -234 -13 -9 -25 -18 -28 -21 -21 -24 -260
-158 -260 -146 0 2 -17 -3 -37 -12 -226 -95 -654 -126 -943 -68 -14 3 -38 8
-55 11 -16 2 -38 7 -47 10 -9 3 -25 7 -36 9 -10 2 -49 12 -85 24 -549 169
-912 611 -976 1186 -11 102 -7 338 9 435 102 647 562 1109 1200 1205 145 22
385 22 497 1 11 -3 38 -7 59 -10 266 -42 567 -190 748 -369 54 -53 131 -147
138 -168 5 -16 39 1 289 146 61 36 113 65 114 65 2 0 36 19 77 43 40 24 98 57
128 74 77 42 232 131 250 143 8 5 36 21 63 35 26 14 47 29 47 34 0 11 -95 146
-149 211 -299 361 -689 624 -1146 773 -115 38 -246 74 -304 83 -18 3 -43 8
-55 10 -29 6 -143 24 -186 30 -88 12 -540 11 -630 -1z"/>
</g>
</svg>
