<?xml version="1.0" encoding="UTF-8"?>
<svg width="113px" height="24px" viewBox="0 0 113 24" version="1.1" xmlns="http://www.w3.org/2000/svg" xmlns:xlink="http://www.w3.org/1999/xlink">
    <!-- Generator: Sketch 49.3 (51167) - http://www.bohemiancoding.com/sketch -->
    <title>Group 3</title>
    <desc>Created with Sketch.</desc>
    <defs></defs>
    <g id="YB-screens" stroke="none" stroke-width="1" fill="none" fill-rule="evenodd">
        <g id="YB.Partners-potoki" transform="translate(-30.000000, -31.000000)">
            <g id="Screen-Structure">
                <g id="Left-Navigation-White">
                    <g id="Logo" transform="translate(0.000000, 31.338694)">
                        <g id="Group-3" transform="translate(30.000000, 0.000000)">
                            <text id="YB.Partners" font-family="ProximaNova-Bold, Proxima Nova" font-size="15" font-weight="bold">
                                <tspan x="33" y="16.7890255" fill="#000000">YB</tspan>
                                <tspan x="52.62" y="16.7890255" fill="#2B9EF6">.</tspan>
                                <tspan x="56.46" y="16.7890255" fill="#000000">Partners</tspan>
                            </text>
                            <g id="team-3" transform="translate(0.000000, 0.253548)" fill="#2599F2">
                                <path d="M21.754,6.73081004 C23.079,7.41389257 24,8.82687324 24,10.472868 C24,11.0506154 23.552,11.5187717 23,11.5187717 L17,11.5187717 C16.448,11.5187717 16,11.0506154 16,10.472868 C16,8.82687324 16.921,7.41389257 18.246,6.73081004 C17.495,6.16051062 17,5.24015799 17,4.19744635 C17,2.46739622 18.346,1.0597355 20,1.0597355 C21.654,1.0597355 23,2.46739622 23,4.19744635 C23,5.24015799 22.505,6.16051062 21.754,6.73081004 Z M20,3.15047874 C19.449,3.15047874 19,3.62076297 19,4.19744635 C19,4.77306574 19.449,5.24228598 20,5.24228598 C20.551,5.24228598 21,4.77306574 21,4.19744635 C21,3.62076297 20.551,3.15047874 20,3.15047874 Z M20,8.38106081 C19.261,8.38106081 18.615,8.80240144 18.269,9.42590044 L21.731,9.42590044 C21.385,8.80240144 20.739,8.38106081 20,8.38106081 Z M15,3.15047874 C14.78,3.15047874 14.558,3.07493535 14.374,2.92065659 C13.084,1.83751327 10.911,1.83751327 9.627,2.9195926 C9.197,3.2813497 8.567,3.21112626 8.221,2.76105787 C7.875,2.31098947 7.943,1.65237875 8.373,1.29062165 C10.405,-0.419212639 13.591,-0.420276631 15.627,1.28955766 C16.057,1.65131476 16.125,2.30992548 15.779,2.75999387 C15.582,3.01747981 15.292,3.15047874 15,3.15047874 Z M7.994,10.232406 C8.011,10.3090134 8.02,10.3898767 8.02,10.472868 C8.02,11.0506154 7.572,11.5187717 7.02,11.5187717 C7.013,11.5187717 7.007,11.5187717 7,11.5187717 L1,11.5187717 C0.448,11.5187717 0,11.0506154 0,10.472868 C0,8.82687324 0.921,7.41389257 2.246,6.73081004 C1.494,6.16051062 1,5.24015799 1,4.19744635 C1,2.46739622 2.346,1.0597355 4,1.0597355 C5.654,1.0597355 7,2.46739622 7,4.19744635 C7,5.24122198 6.505,6.16051062 5.753,6.73187403 C7.013,7.38090883 7.91,8.68855435 7.994,10.232406 Z M4,3.15047874 C3.449,3.15047874 3,3.62076297 3,4.19744635 C3,4.77306574 3.449,5.24228598 4,5.24228598 C4.551,5.24228598 5,4.77306574 5,4.19744635 C5,3.62076297 4.551,3.15047874 4,3.15047874 Z M4,8.38106081 C3.261,8.38106081 2.615,8.80240144 2.269,9.42590044 L5.731,9.42590044 C5.385,8.80240144 4.739,8.38106081 4,8.38106081 Z M3.612,12.6466026 C4.122,12.4221004 4.708,12.6721384 4.922,13.2041342 C5.602,14.8937526 6.578,16.2790695 7.534,16.9100164 C8.001,17.218574 8.141,17.8633528 7.846,18.3517249 C7.655,18.6677304 7.331,18.840097 6.999,18.840097 C6.816,18.840097 6.632,18.7879614 6.466,18.6783703 C4.609,17.4526521 3.478,15.0097277 3.078,14.0170236 C2.864,13.4839639 3.103,12.8700408 3.612,12.6466026 Z M10.246,18.5687791 C9.494,17.9984797 9,17.0781271 9,16.0354155 C9,14.3043013 10.346,12.8966406 12,12.8966406 C13.654,12.8966406 15,14.3043013 15,16.0354155 C15,17.0781271 14.505,17.9974157 13.754,18.5687791 C15.079,19.2507977 16,20.6637784 16,22.3108371 C16,22.8875205 15.552,23.3567408 15,23.3567408 L9,23.3567408 C8.448,23.3567408 8,22.8875205 8,22.3108371 C8,20.6637784 8.921,19.2518617 10.246,18.5687791 Z M12,14.9884478 C11.449,14.9884478 11,15.4576681 11,16.0354155 C11,16.6110348 11.449,17.0802551 12,17.0802551 C12.551,17.0802551 13,16.6110348 13,16.0354155 C13,15.4576681 12.551,14.9884478 12,14.9884478 Z M13.731,21.2638695 C13.385,20.6403705 12.739,20.2179659 12,20.2179659 C11.261,20.2179659 10.615,20.6403705 10.269,21.2638695 L13.731,21.2638695 Z M19.078,13.2041342 C19.292,12.6721384 19.878,12.4221004 20.388,12.6466026 C20.897,12.8700408 21.136,13.4839639 20.922,14.0170236 C20.522,15.0097277 19.391,17.4526521 17.534,18.6783703 C17.368,18.7879614 17.183,18.840097 17.001,18.840097 C16.669,18.840097 16.345,18.6677304 16.154,18.3517249 C15.859,17.8633528 15.999,17.218574 16.466,16.9100164 C17.422,16.2790695 18.398,14.8937526 19.078,13.2041342 Z" id="Shape"></path>
                            </g>
                        </g>
                    </g>
                </g>
            </g>
        </g>
    </g>
</svg>