<?xml version="1.0" encoding="UTF-8"?>
<svg width="114px" height="24px" viewBox="0 0 114 24" version="1.1" xmlns="http://www.w3.org/2000/svg" xmlns:xlink="http://www.w3.org/1999/xlink">
    <!-- Generator: Sketch 49.3 (51167) - http://www.bohemiancoding.com/sketch -->
    <title>Group 3</title>
    <desc>Created with Sketch.</desc>
    <defs></defs>
    <g id="YB-screens" stroke="none" stroke-width="1" fill="none" fill-rule="evenodd">
        <g id="YB.Partners-potoki" transform="translate(-30.000000, -31.000000)">
            <g id="Screen-Structure">
                <g id="Group-3" transform="translate(30.000000, 31.338694)">
                    <path d="M38.91,16.7890255 L36.78,16.7890255 L36.78,12.6940255 L32.925,6.78402554 L35.355,6.78402554 L37.845,10.8040255 L40.305,6.78402554 L42.735,6.78402554 L38.91,12.6940255 L38.91,16.7890255 Z M49.095,16.7890255 L43.665,16.7890255 L43.665,6.78402554 L48.93,6.78402554 C50.835,6.78402554 51.81,7.99902554 51.81,9.33402554 C51.81,10.5940255 51.03,11.4340255 50.085,11.6290255 C51.15,11.7940255 52.005,12.8290255 52.005,14.0890255 C52.005,15.5890255 51,16.7890255 49.095,16.7890255 Z M48.465,10.7890255 C49.185,10.7890255 49.635,10.3390255 49.635,9.70902554 C49.635,9.07902554 49.185,8.61402554 48.465,8.61402554 L45.795,8.61402554 L45.795,10.7890255 L48.465,10.7890255 Z M48.54,14.9440255 C49.35,14.9440255 49.83,14.5090255 49.83,13.7890255 C49.83,13.1590255 49.38,12.6190255 48.54,12.6190255 L45.795,12.6190255 L45.795,14.9440255 L48.54,14.9440255 Z M54.54,16.9540255 C53.88,16.9540255 53.325,16.3990255 53.325,15.7390255 C53.325,15.0790255 53.88,14.5240255 54.54,14.5240255 C55.2,14.5240255 55.755,15.0790255 55.755,15.7390255 C55.755,16.3990255 55.2,16.9540255 54.54,16.9540255 Z M59.58,16.7890255 L57.45,16.7890255 L57.45,6.78402554 L62.13,6.78402554 C64.305,6.78402554 65.49,8.25402554 65.49,10.0090255 C65.49,11.7490255 64.29,13.2340255 62.13,13.2340255 L59.58,13.2340255 L59.58,16.7890255 Z M61.845,11.3590255 C62.685,11.3590255 63.315,10.8340255 63.315,10.0090255 C63.315,9.16902554 62.685,8.65902554 61.845,8.65902554 L59.58,8.65902554 L59.58,11.3590255 L61.845,11.3590255 Z M72.72,16.7890255 L70.815,16.7890255 L70.815,16.0390255 C70.32,16.6240255 69.465,16.9690255 68.52,16.9690255 C67.365,16.9690255 66,16.1890255 66,14.5690255 C66,12.8740255 67.365,12.2290255 68.52,12.2290255 C69.48,12.2290255 70.335,12.5440255 70.815,13.1140255 L70.815,12.1390255 C70.815,11.4040255 70.185,10.9240255 69.225,10.9240255 C68.445,10.9240255 67.725,11.2090255 67.11,11.7790255 L66.39,10.5040255 C67.275,9.72402554 68.415,9.36402554 69.555,9.36402554 C71.205,9.36402554 72.72,10.0240255 72.72,12.1090255 L72.72,16.7890255 Z M69.285,15.6790255 C69.9,15.6790255 70.5,15.4690255 70.815,15.0490255 L70.815,14.1490255 C70.5,13.7290255 69.9,13.5190255 69.285,13.5190255 C68.535,13.5190255 67.92,13.9090255 67.92,14.6140255 C67.92,15.2890255 68.535,15.6790255 69.285,15.6790255 Z M76.515,16.7890255 L74.61,16.7890255 L74.61,9.54402554 L76.515,9.54402554 L76.515,10.5340255 C77.025,9.88902554 77.925,9.36402554 78.825,9.36402554 L78.825,11.2240255 C78.69,11.1940255 78.51,11.1790255 78.3,11.1790255 C77.67,11.1790255 76.83,11.5390255 76.515,12.0040255 L76.515,16.7890255 Z M82.44,16.9690255 C81.105,16.9690255 80.385,16.2790255 80.385,14.9890255 L80.385,11.2090255 L79.185,11.2090255 L79.185,9.54402554 L80.385,9.54402554 L80.385,7.56402554 L82.305,7.56402554 L82.305,9.54402554 L83.775,9.54402554 L83.775,11.2090255 L82.305,11.2090255 L82.305,14.4790255 C82.305,14.9290255 82.545,15.2740255 82.965,15.2740255 C83.25,15.2740255 83.52,15.1690255 83.625,15.0640255 L84.03,16.5040255 C83.745,16.7590255 83.235,16.9690255 82.44,16.9690255 Z M91.875,16.7890255 L89.97,16.7890255 L89.97,12.4090255 C89.97,11.4040255 89.445,11.0590255 88.635,11.0590255 C87.885,11.0590255 87.3,11.4790255 86.985,11.9140255 L86.985,16.7890255 L85.08,16.7890255 L85.08,9.54402554 L86.985,9.54402554 L86.985,10.4890255 C87.45,9.93402554 88.335,9.36402554 89.52,9.36402554 C91.11,9.36402554 91.875,10.2640255 91.875,11.6740255 L91.875,16.7890255 Z M97.17,16.9690255 C94.965,16.9690255 93.3,15.4840255 93.3,13.1590255 C93.3,11.0590255 94.845,9.36402554 97.05,9.36402554 C99.21,9.36402554 100.68,10.9840255 100.68,13.3540255 L100.68,13.7740255 L95.295,13.7740255 C95.415,14.6890255 96.15,15.4540255 97.38,15.4540255 C97.995,15.4540255 98.85,15.1840255 99.315,14.7340255 L100.155,15.9640255 C99.435,16.6240255 98.295,16.9690255 97.17,16.9690255 Z M98.835,12.4840255 C98.79,11.7940255 98.31,10.8790255 97.05,10.8790255 C95.865,10.8790255 95.355,11.7640255 95.265,12.4840255 L98.835,12.4840255 Z M103.965,16.7890255 L102.06,16.7890255 L102.06,9.54402554 L103.965,9.54402554 L103.965,10.5340255 C104.475,9.88902554 105.375,9.36402554 106.275,9.36402554 L106.275,11.2240255 C106.14,11.1940255 105.96,11.1790255 105.75,11.1790255 C105.12,11.1790255 104.28,11.5390255 103.965,12.0040255 L103.965,16.7890255 Z M110.07,16.9690255 C108.81,16.9690255 107.595,16.5490255 106.83,15.8440255 L107.655,14.5090255 C108.18,15.0040255 109.26,15.4990255 110.16,15.4990255 C110.985,15.4990255 111.375,15.1690255 111.375,14.7190255 C111.375,13.5190255 107.07,14.4940255 107.07,11.6440255 C107.07,10.4290255 108.135,9.36402554 110.04,9.36402554 C111.27,9.36402554 112.245,9.78402554 112.965,10.3540255 L112.2,11.6590255 C111.765,11.1940255 110.94,10.8190255 110.055,10.8190255 C109.365,10.8190255 108.915,11.1340255 108.915,11.5390255 C108.915,12.6190255 113.205,11.7190255 113.205,14.6440255 C113.205,15.9640255 112.08,16.9690255 110.07,16.9690255 Z" id="YB.Partners" fill="#000000"></path>
                    <g id="team-3" transform="translate(0.000000, 0.253548)" fill="#2599F2">
                        <path d="M21.754,6.73081004 C23.079,7.41389257 24,8.82687324 24,10.472868 C24,11.0506154 23.552,11.5187717 23,11.5187717 L17,11.5187717 C16.448,11.5187717 16,11.0506154 16,10.472868 C16,8.82687324 16.921,7.41389257 18.246,6.73081004 C17.495,6.16051062 17,5.24015799 17,4.19744635 C17,2.46739622 18.346,1.0597355 20,1.0597355 C21.654,1.0597355 23,2.46739622 23,4.19744635 C23,5.24015799 22.505,6.16051062 21.754,6.73081004 Z M20,3.15047874 C19.449,3.15047874 19,3.62076297 19,4.19744635 C19,4.77306574 19.449,5.24228598 20,5.24228598 C20.551,5.24228598 21,4.77306574 21,4.19744635 C21,3.62076297 20.551,3.15047874 20,3.15047874 Z M20,8.38106081 C19.261,8.38106081 18.615,8.80240144 18.269,9.42590044 L21.731,9.42590044 C21.385,8.80240144 20.739,8.38106081 20,8.38106081 Z M15,3.15047874 C14.78,3.15047874 14.558,3.07493535 14.374,2.92065659 C13.084,1.83751327 10.911,1.83751327 9.627,2.9195926 C9.197,3.2813497 8.567,3.21112626 8.221,2.76105787 C7.875,2.31098947 7.943,1.65237875 8.373,1.29062165 C10.405,-0.419212639 13.591,-0.420276631 15.627,1.28955766 C16.057,1.65131476 16.125,2.30992548 15.779,2.75999387 C15.582,3.01747981 15.292,3.15047874 15,3.15047874 Z M7.994,10.232406 C8.011,10.3090134 8.02,10.3898767 8.02,10.472868 C8.02,11.0506154 7.572,11.5187717 7.02,11.5187717 C7.013,11.5187717 7.007,11.5187717 7,11.5187717 L1,11.5187717 C0.448,11.5187717 0,11.0506154 0,10.472868 C0,8.82687324 0.921,7.41389257 2.246,6.73081004 C1.494,6.16051062 1,5.24015799 1,4.19744635 C1,2.46739622 2.346,1.0597355 4,1.0597355 C5.654,1.0597355 7,2.46739622 7,4.19744635 C7,5.24122198 6.505,6.16051062 5.753,6.73187403 C7.013,7.38090883 7.91,8.68855435 7.994,10.232406 Z M4,3.15047874 C3.449,3.15047874 3,3.62076297 3,4.19744635 C3,4.77306574 3.449,5.24228598 4,5.24228598 C4.551,5.24228598 5,4.77306574 5,4.19744635 C5,3.62076297 4.551,3.15047874 4,3.15047874 Z M4,8.38106081 C3.261,8.38106081 2.615,8.80240144 2.269,9.42590044 L5.731,9.42590044 C5.385,8.80240144 4.739,8.38106081 4,8.38106081 Z M3.612,12.6466026 C4.122,12.4221004 4.708,12.6721384 4.922,13.2041342 C5.602,14.8937526 6.578,16.2790695 7.534,16.9100164 C8.001,17.218574 8.141,17.8633528 7.846,18.3517249 C7.655,18.6677304 7.331,18.840097 6.999,18.840097 C6.816,18.840097 6.632,18.7879614 6.466,18.6783703 C4.609,17.4526521 3.478,15.0097277 3.078,14.0170236 C2.864,13.4839639 3.103,12.8700408 3.612,12.6466026 Z M10.246,18.5687791 C9.494,17.9984797 9,17.0781271 9,16.0354155 C9,14.3043013 10.346,12.8966406 12,12.8966406 C13.654,12.8966406 15,14.3043013 15,16.0354155 C15,17.0781271 14.505,17.9974157 13.754,18.5687791 C15.079,19.2507977 16,20.6637784 16,22.3108371 C16,22.8875205 15.552,23.3567408 15,23.3567408 L9,23.3567408 C8.448,23.3567408 8,22.8875205 8,22.3108371 C8,20.6637784 8.921,19.2518617 10.246,18.5687791 Z M12,14.9884478 C11.449,14.9884478 11,15.4576681 11,16.0354155 C11,16.6110348 11.449,17.0802551 12,17.0802551 C12.551,17.0802551 13,16.6110348 13,16.0354155 C13,15.4576681 12.551,14.9884478 12,14.9884478 Z M13.731,21.2638695 C13.385,20.6403705 12.739,20.2179659 12,20.2179659 C11.261,20.2179659 10.615,20.6403705 10.269,21.2638695 L13.731,21.2638695 Z M19.078,13.2041342 C19.292,12.6721384 19.878,12.4221004 20.388,12.6466026 C20.897,12.8700408 21.136,13.4839639 20.922,14.0170236 C20.522,15.0097277 19.391,17.4526521 17.534,18.6783703 C17.368,18.7879614 17.183,18.840097 17.001,18.840097 C16.669,18.840097 16.345,18.6677304 16.154,18.3517249 C15.859,17.8633528 15.999,17.218574 16.466,16.9100164 C17.422,16.2790695 18.398,14.8937526 19.078,13.2041342 Z" id="Shape"></path>
                    </g>
                </g>
            </g>
        </g>
    </g>
</svg>