<?xml version="1.0" encoding="utf-8"?>
<!-- Generator: Adobe Illustrator 17.1.0, SVG Export Plug-In . SVG Version: 6.00 Build 0)  -->
<!DOCTYPE svg PUBLIC "-//W3C//DTD SVG 1.1//EN" "http://www.w3.org/Graphics/SVG/1.1/DTD/svg11.dtd">
<svg version="1.1" id="Layer_1" xmlns="http://www.w3.org/2000/svg" xmlns:xlink="http://www.w3.org/1999/xlink" x="0px" y="0px"
	 width="114px" height="28px" viewBox="0 0 114 28" enable-background="new 0 0 114 28" xml:space="preserve">
<path d="M6.1255279,17.5217781c-0.0552006-0.0563278-0.1080532-0.1143036-0.1607418-0.1723881l1.6619272-2.3801975
	c0.0429683,0.0701752,0.0892854,0.1384125,0.1375022,0.2056808L6.1255279,17.5217781z M12.4642725,10.3035831
	c-0.3056164-0.2062187-0.6366577-0.3569002-0.9809742-0.4550943l-3.7190828,5.3263845
	c0.2311978,0.3226385,0.5187206,0.6122704,0.8661404,0.8467598c0.8244801,0.556303,1.8044538,0.7030735,2.7027588,0.4914017
	l0.545392-0.781106l0.1911297,0.1289768l1.5861826-2.2717066l-0.1911097-0.1289768l-1.5862026,2.2717066l-2.3938951-1.6155233
	l1.5427847-2.3009825l2.4373131,1.6447992l3.7755919-5.4073219l0.0247517,0.1164198L16.190239,3.1073456l-3.0704794,4.3974319
	c0.3057184,0.140636,0.6027374,0.3057761,0.8872986,0.497788L12.4642725,10.3035831z M13.1197596,7.5047774
	C13.0485888,7.4719858,12.9772549,7.439661,12.9050827,7.40974l-1.6604156,2.3779378
	c0.0803604,0.0167179,0.1596184,0.0382442,0.2386312,0.060811L13.1197596,7.5047774z M18.1695862,20.8038044
	c0.2812328-0.0552139,0.5670395,0.0026913,0.8047104,0.1632404c0.4907017,0.3312836,0.6214237,1.0011711,0.2914238,1.4933624
	c-0.1223488,0.1825771-0.2914028,0.3153915-0.4802856,0.3934593c-0.3209534,0.1326008-0.6997223,0.107235-1.0085239-0.1009922
	l0.2571144-0.383522c0.2798843,0.1887112,0.6608772,0.1140518,0.8494148-0.1668968
	c0.1881275-0.2808075,0.1136684-0.6630001-0.1662979-0.8519268c-0.135643-0.091629-0.2985706-0.1245995-0.4591274-0.0931721
	c-0.081995,0.016037-0.1578426,0.048111-0.2245827,0.0929928l0.5217018,0.3522015l-0.2571545,0.3834839l-0.6839142-0.4616241
	l-1.99928,2.8632774l-0.3304701,0.0706768l0.1439352-0.0307827l4.2741957-0.9134903
	c0.215065-0.0458145,0.3995171-0.173069,0.5192108-0.35812c0.1198978-0.1850872,0.1606197-0.4060154,0.1147308-0.6217422
	l-0.7992172-3.7640305l-1.3488369,1.9317398C18.182085,20.8030872,18.1758347,20.8025494,18.1695862,20.8038044z
	 M4.3515649,13.2103777l4.1273818-5.9111376C8.3473263,7.3456645,8.2183409,7.3975778,8.0908251,7.4524693l-3.728559,5.3399816
	C4.3541994,12.9317961,4.3502989,13.0711765,4.3515649,13.2103777z M19.4294853,4.9176073l1.3653584-1.9554543
	c0.07691,0.0219204,0.1501637,0.0511241,0.2189655,0.0891175l-1.5422745,2.2087431l0.6892433,5.6109943l-0.0155201-0.1264296
	l1.57687-2.2583609l0.0070038,0.1985769l-0.1673374-4.7474437c-0.0208302-0.5836763-0.5088577-1.0401704-1.0906811-1.0192184
	l-1.2816486,0.0453839L19.4294853,4.9176073L19.4294853,4.9176073z M12.3847084,16.0735817l-0.3150721-0.212676l-0.383832,0.549737
	C11.9292145,16.3251133,12.1641703,16.2131786,12.3847084,16.0735817z M18.4215126,13.6158552l-8.4303322,12.073699
	l5.2931347-1.1311893l2.1386204-3.0629311l0.1911297,0.1289768l-0.051075-0.0344772l-0.2059784-0.1389866l0.1285572-0.1917591
	c0.0843239-0.1258202,0.1929283-0.2285709,0.3169308-0.3073196c0.0554047-0.0351944,0.1138935-0.0655823,0.1749973-0.090517
	c0.0616951-0.0245743,0.1256351-0.0445938,0.1920891-0.0575466c-0.1326408,0.0259399-0.25597,0.0775299-0.3671284,0.1480999
	l1.669138-2.3905296l0.0655746,0.3088245l-0.0336552-0.1585388L18.4215126,13.6158552z M9.887682,9.7811842
	c-0.9009199,0.1771584-1.6783476,0.6948576-2.1901245,1.4583836c-0.7746091,1.1552629-0.753942,2.6142931-0.0708442,3.7296247
	l3.6179538-5.1815147C10.8031216,9.6958332,10.3436041,9.6916714,9.887682,9.7811842z M12.9050426,7.40974l3.2196617-4.6110768
	l-0.4553719-2.1444166c-0.0807285-0.3789287-0.4188566-0.6542458-0.8042212-0.6542458
	c-0.0575895,0-0.1158543,0.0060631-0.1727705,0.0182971l-1.3276587,0.2836763V0.3019383L8.4789467,7.2992401
	c0.283989-0.1001315,0.5770664-0.180531,0.8778429-0.2395482C10.5666542,6.8220811,11.7912426,6.9476137,12.9050426,7.40974z
	 M19.7506218,11.3097429l-0.6737041-5.4844933l-1.4097748,2.0190277l-0.0655766-0.308754l1.4332829-2.0527158l-0.4158134-3.3851376
	C18.5679798,1.6844792,18.2172508,1.372568,17.803091,1.372568c-0.0337162,0-0.0679226,0.002045-0.102354,0.0063502
	l-0.3323288,0.0410429l-0.8169441,1.1700078l-0.0655346-0.3086464l0.5748806-0.8232963l0.3075981-0.0380651l-0.1090126,0.0134896
	l-0.9291229,0.1148051l2.3869724,11.2414684L19.7506218,11.3097429z M19.7862377,11.5997334l0.0064335,0.0523443
	l-1.0098724,1.4463291l1.0501232,4.9455194l0.6334534-0.9072132L19.7862377,11.5997334z M18.3559589,13.3071365
	l-1.0500832-4.9454823l-3.6500568,5.2275448l2.8064003,1.8938904l-0.7714024,1.150526
	c-0.7071342,1.054594-1.6827583,1.8225689-2.774828,2.2737885c-1.0251675,0.423666-2.152936,0.5667782-3.2581987,0.4077015
	l-4.8552446,6.9535675c0.1841459,0.266922,0.5204358,0.4189682,0.8520088,0.347681l4.0061769-0.8561592L18.3559589,13.3071365z
	 M6.1255279,17.5217781l-2.4879594,3.5631924l1.0395446,4.8958645c0.0032678,0.0154285,0.0101905,0.0292034,0.0143366,0.0442734
	l4.7151284-6.7529106c-0.8065081-0.1503963-1.596127-0.4617329-2.3190279-0.9495468
	C6.7341466,18.0841789,6.4131522,17.8152847,6.1255279,17.5217781z M11.3331146,16.5130348l-1.9265366,2.7591629
	c0.0836496,0.0155697,0.1672363,0.030817,0.2512121,0.0429077l2.0280142-2.9044628
	C11.5700722,16.451292,11.4522772,16.4849796,11.3331146,16.5130348z M8.6936235,27.2656841l-2.2505732,0.278223
	c-0.0530972,0.0067806-0.1061745,0.009903-0.1585979,0.009903c-0.0712729,0-0.1407285-0.0081444-0.2091217-0.0194817
	c0.1969094,0.290781,0.5316882,0.4784145,0.9080262,0.4649963l1.1421857-0.0405045l0.476018-0.6817265L8.6936235,27.2656841z
	 M20.6416569,25.3231812c0.4508171-0.0557156,0.7725067-0.4687271,0.7171822-0.9209881l-0.8503952-6.9230366l0,0
	l-0.6099453,0.8735237l0.8886871,4.1853638c0.0713329,0.3365231,0.007658,0.6809025-0.1790409,0.9695301
	c-0.1867199,0.2886639-0.4744663,0.4872398-0.8098583,0.5587788l-4.5714178,0.9769554l-0.7254124,1.0389156l-0.3077202,0.0380287
	l0.0344925-0.0042343L20.6416569,25.3231812z M4.3622661,12.7924509l-1.9058692,2.7295284L0.0100781,4.0003862
	C-0.0843944,3.5546911,0.1999421,3.1148438,0.64402,3.0200219l6.7667708-1.4458632l-6.0700312,8.6934042l0.0655547,0.3086824
	l6.3348441-9.0726557L7.4107909,1.5741587l0.0644112-0.0137765l5.6522164-1.2077502l-0.0931454,0.0199474L8.0908251,7.4524693
	c-1.0837379,0.4666109-2.01335,1.2342629-2.6869311,2.239346C4.7632942,10.6472807,4.4243493,11.7184849,4.3622661,12.7924509z
	 M1.3346331,5.5766249c0.3088225,0.2082276,0.6877949,0.233521,1.008544,0.1009927
	C2.5320606,5.599586,2.7011349,5.4667349,2.8234837,5.2841587l0.1285567-0.1917248L2.010869,4.4573822L1.7537348,4.8409033
	L2.2753143,5.192853C2.0744429,5.3276052,1.8043611,5.336431,1.5917673,5.1931396
	C1.3117808,5.0041776,1.2372607,4.621769,1.4256134,4.3408909c0.091205-0.1357927,0.2290947-0.2283902,0.3901432-0.2597823
	c0.1605583-0.0314279,0.3234856,0.0015783,0.4591494,0.0931716l0.2571139-0.3834853
	c-0.2376516-0.1605477-0.523438-0.2184527-0.8046703-0.1632385C1.4466481,3.6827345,1.2030333,3.8443947,1.0433327,4.0829382
	C0.7131078,4.5752368,0.8439316,5.2453403,1.3346331,5.5766249z M21.7356262,8.86938l-1.5483398,2.2175331l0.6943703,5.6528616
	l-0.0206451-0.1682606l1.0910282-1.5625706l0.0135193,0.3833418l-1.0625,1.5216703l0.9129086,7.4318027
	c0.0863857,0.7052631-0.4153042,1.3493557-1.1180687,1.4359989L8.9092808,27.2390289L8.4138412,27.948595l4.6176338-0.1638126
	l0.806488-1.1550102l0.3077402-0.0380287l-0.8259096,1.1828156l-0.2883186,0.0102234l0.1375227-0.004879L21.3371105,27.4902
	c0.5819073-0.0204849,1.036644-0.5104885,1.016304-1.0938053L21.7356262,8.86938z M5.9647861,17.34939
	c-1.0411172-1.1470108-1.5994973-2.6308317-1.6132212-4.1390123L2.5219517,15.830698l-0.0655549-0.3087187l0.0231383,0.1089211
	l1.1367741,5.3538656l0.0212593,0.1002045l-0.0655344-0.308754L5.9647861,17.34939z M5.9642754,27.022728l8.9321022-1.9088154
	l-0.7026415,1.00634l-7.8069077,0.965044C6.2364607,27.104311,6.0930772,27.0780869,5.9642754,27.022728z M8.9573336,26.7675381
	l0.3077202-0.0379925l0.3382711-0.484478l-0.3304701,0.0706043L8.9573336,26.7675381z"/>
<path d="M61.6518707,13.9553938c0.4706421-0.4086437,0.7554817-0.9783268,0.7554817-1.6969509
	c0-1.4984875-1.22612-2.4771919-2.7372742-2.4771919h-3.393898v8.6703634h3.6416931
	c1.5481987,0,2.7992706-1.0032768,2.7992706-2.5391893C62.717144,15.0331411,62.2960243,14.3640385,61.6518707,13.9553938z
	 M58.2579689,11.6392393h1.4121094c0.4583549,0,0.7554817,0.3220768,0.7554817,0.7677679
	c0,0.4460678-0.3096008,0.7681446-0.7554817,0.7681446h-1.4121094V11.6392393z M59.9178734,16.5936241h-1.6599045v-1.6595259
	h1.6599045c0.4954033,0,0.8174782,0.3466482,0.8174782,0.8297634S60.4132767,16.5936241,59.9178734,16.5936241z
	 M32.1710892,13.6208429h4.3476563v0.7431955c0,2.6507053-1.8457031,4.2610874-4.2733765,4.2610874
	c-2.724987,0-4.6820183-2.0065517-4.6820183-4.4962187c0-2.514617,1.9942665-4.5211697,4.545742-4.5211697
	c1.6599045,0,3.059536,0.8176661,3.7902603,1.9819813l-1.6844788,0.9662294
	c-0.3593102-0.5700607-1.1395531-1.0157509-2.1180687-1.0157509c-1.4616299,0-2.5516624,1.0773687-2.5516624,2.6011848
	c0,1.4739161,1.0405102,2.5512848,2.724987,2.5512848c1.1520271,0,1.9075089-0.5076866,2.2171135-1.3374491h-2.3161545V13.6208429z
	 M39.6529427,9.781251l-2.9480209,8.6703634h2.1675911l0.4335938-1.3624001h3.2203865l0.4335938,1.3624001h2.1675911
	L42.179657,9.781251H39.6529427z M39.9007378,15.231226l1.0155602-3.183342l1.0157509,3.183342H39.9007378z M65.8139191,16.5441036
	h3.0965805v1.9075108h-5.078373V9.781251h1.9817924V16.5441036z M52.6836243,9.781251h1.9817924v8.6703634h-1.9817924v-5.0413313
	l-2.2418709,3.6789312h-0.222847l-2.2420616-3.6789312v5.0413313h-1.9817886V9.781251h1.9817886l2.3533897,3.852066
	L52.6836243,9.781251z M69.90168,9.781251h1.9817963v8.6703634H69.90168V9.781251z M86.1531296,13.6208429h4.3476563v0.7431955
	c0,2.6507053-1.8457031,4.2610874-4.2733688,4.2610874c-2.7249908,0-4.6820221-2.0065517-4.6820221-4.4962187
	c0-2.514617,1.9942627-4.5211697,4.5457382-4.5211697c1.6599045,0,3.0595398,0.8176661,3.7902603,1.9819813l-1.6844711,0.9662294
	c-0.359314-0.5700607-1.1395569-1.0157509-2.1180725-1.0157509c-1.4616318,0-2.5516663,1.0773687-2.5516663,2.6011848
	c0,1.4739161,1.0405121,2.5512848,2.7249908,2.5512848c1.1520309,0,1.9075089-0.5076866,2.2171097-1.3374491h-2.3161545V13.6208429z
	 M78.3246307,9.781251h1.9817886v8.6703634h-1.4863892l-3.3443832-4.7067795v4.7067795h-1.9817886V9.781251h1.4863892
	l3.3443832,4.7067795V9.781251z M109.0714188,13.9603081c0,0.7745714-0.5575867,1.2890625-1.2639236,1.2890625
	c-0.7063446,0-1.2641144-0.5144911-1.2641144-1.2890625s0.5577698-1.2886839,1.2641144-1.2886839
	C108.5138321,12.6716242,109.0714188,13.1857367,109.0714188,13.9603081z M110.9032059,8.000001H95.4193573
	c-1.7103271,0-3.0968018,1.3864746-3.0968018,3.0968208v5.806428C92.3225555,18.6135502,93.7090302,20,95.4193573,20h15.4838486
	C112.6135025,20,114,18.6135502,114,16.9032497v-5.806428C114,9.3864756,112.6135025,8.000001,110.9032059,8.000001z
	 M96.9434509,16.215601c-0.3220749,0-0.5885773-0.2661295-0.5885773-0.5885839c0-0.3220768,0.2665024-0.5885839,0.5885773-0.5885839
	c0.3222656,0,0.5887756,0.2665071,0.5887756,0.5885839C97.5322266,15.9494715,97.2657166,16.215601,96.9434509,16.215601z
	 M99.854805,14.7658777h-0.6505737v1.3631544h-0.9913712v-4.3370705h1.6419449c0.8550949,0,1.5181503,0.6626759,1.5181503,1.4867687
	S100.7098999,14.7658777,99.854805,14.7658777z M104.2090759,16.1290321l-0.8178558-1.4251499h-0.4708252v1.4251499h-0.9913712
	v-4.3370705h1.7349472c0.8240891,0,1.4869537,0.6626759,1.4869537,1.4867687c0,0.5330143-0.3220749,1.0161295-0.7993317,1.2580643
	l0.9233246,1.5922375H104.2090759z M107.8074951,16.215601c-1.2454071,0-2.2554855-0.9787054-2.2554855-2.2552929
	c0-1.2762098,1.0100784-2.2552919,2.2554855-2.2552919c1.2453995,0,2.2552872,0.9790821,2.2552872,2.2552919
	C110.0627823,15.2368956,109.0528946,16.215601,107.8074951,16.215601z M100.3815842,13.2787304
	c0,0.3160286-0.2230377,0.5575857-0.5267792,0.5575857h-0.6505737v-1.1151714h0.6505737
	C100.1585464,12.7211447,100.3815842,12.9627028,100.3815842,13.2787304z M104.1595612,13.2787304
	c0,0.3160286-0.2230377,0.5575857-0.4955902,0.5575857h-0.743576v-1.1151714h0.743576
	C103.9365234,12.7211447,104.1595612,12.9627028,104.1595612,13.2787304z"/>
</svg>
